/* XPM */
static const char *kvkbd[] = {
/* columns rows colors const chars-per-pixel */
"96 47 108 2",
"   c #000000",
".  c #080706",
"X  c #080807",
"o  c #0D0C0B",
"O  c #100F0D",
"+  c #11100F",
"@  c #151411",
"#  c #181715",
"$  c #1B1917",
"%  c #1E1C19",
"&  c #250101",
"*  c #260A09",
"=  c #201F1C",
"-  c #23221E",
";  c #262420",
":  c #292723",
">  c #2D2B26",
",  c #2F2D28",
"<  c #312E29",
"1  c #35322D",
"2  c #38352F",
"3  c #373530",
"4  c #393631",
"5  c #3C3934",
"6  c #5A2724",
"7  c #5A2A27",
"8  c #5A312D",
"9  c #403D37",
"0  c #423F38",
"q  c #45413B",
"w  c #49453E",
"e  c #4A4740",
"r  c #4D4A42",
"t  c #524E46",
"y  c #56524A",
"u  c #5A564E",
"i  c #5C584F",
"p  c #5E5A51",
"a  c #625E54",
"s  c #656057",
"d  c #666258",
"f  c #6A655B",
"g  c #6E695E",
"h  c #6F6A60",
"j  c #726D62",
"k  c #767166",
"l  c #787267",
"z  c #7B756A",
"x  c #7F796D",
"c  c #E80202",
"v  c #F20101",
"b  c #FD0404",
"n  c #F50D0D",
"m  c #FD0808",
"M  c #E91413",
"N  c #F31111",
"B  c #807A6F",
"V  c #837D72",
"C  c #868074",
"Z  c #898276",
"A  c #86837A",
"S  c #8B8579",
"D  c #8E897C",
"F  c #928B7E",
"G  c #9B907E",
"H  c #8D8D82",
"J  c #948E81",
"K  c #979184",
"L  c #9A9385",
"P  c #97948A",
"I  c #9C9689",
"U  c #9F988B",
"Y  c #9E9A90",
"T  c #A39B8D",
"R  c #A49E91",
"E  c #A6A092",
"W  c #ABA495",
"Q  c #ADA698",
"!  c #AFA89A",
"~  c #B0A797",
"^  c #B0A897",
"/  c #B3AB9C",
"(  c #B9AF9F",
")  c #B9B19F",
"_  c #B6AFA0",
"`  c #B6B0A3",
"'  c #BCB4A3",
"]  c #BFB9A7",
"[  c #BDB7A9",
"{  c #BEB8A9",
"}  c #C0B6A5",
"|  c #C2B9A6",
" . c #C5BCAA",
".. c #C9BFAE",
"X. c #C4BEB1",
"o. c #CAC1AF",
"O. c #C7C0B2",
"+. c #CCC3B2",
"@. c #CDC7B8",
"#. c #D0C7B5",
"$. c #D2C9B7",
"%. c #D5CCBA",
"&. c #D8CFBD",
"*. c #DAD1BF",
"=. c #DDD4C2",
"-. c #E0D7C5",
";. c #E2D9C7",
":. c #E3DAC8",
/* pixels */
"                                                                                                                                                                                                ",
"                                                                                                                                                                        . ; ; ; ; ; ; ;         ",
"                                                                                                                                                                        * N n n n n n M .       ",
"                                                                                                                                                                        & m b b b b b v         ",
"                                                                                                                                                                        & v v v v v v c         ",
"                                                                                                                                                                        O 7 6 6 6 6 6 8         ",
"                                                                                                                                                                                                ",
"    @ l z z z j .     @ z z z z j X a x z z z - 5 z z z z r @ z z z z g .       % z z z x d . h z z z z @ r z z z z 5 ; z z z z a       - z z z z d . h z z z z @ t x z z x 3 : x z z z a       ",
"    2 -.-.-.=.%.+     < -.=.=.=.*.@ +.=.=.;.=.y V -.-.-.-.L 9 -.=.=.=.$.o       t =.-.-.=.@.O *.=.=.=.=.3 T =.=.=.;.x i =.=.=.;. .      y =.=.-.=.+.O =.=.=.=.=.< E -.-.=.-.l a =.-.-.=.'       ",
"    2 R T T / ..+     1 *.V U *.$.@ o.K ! U &.y V ^ T L  .K 5 *.x ' W @.o       r &.z J { o.O %.D I U &.3 U E W K %.z u %.x F / |       y *.z I !  .+ T W W E / < J S R +./ k a V R @.K _       ",
"    2 / ' K ~  .+     < %.' W ..+.@  .'  .U $.t B ' $.W X.J 9 $.' ' / o.o       r $.' ' '  .+ $.' } W %.5 I ' $.' $.z u $.' E ` '       y $.' W [  .+ ' $.R ^ ' < L  .T  .W j p ' ^ ' J /       ",
"    3 +.+.+.+. .+     < @.+.+.+...@ | +.+.+.+.t B +.+.+.+.F 5 #.o.+.+. .o       r +.+.+.o.| O +.+.+.+.o.2 L +.+.+.+.z u +.+.+.+.)       y +.+.+.+.' + +.+.+.o.+.< T +.+.+.+.j a +.+.+.+./       ",
"    @ l z z x j .     + l z z z j . a z z z z - 5 z z B z r # z z z z h .       % x z z x d . g z x z z @ r z z z z 5 ; z z z x a       - z z z z d . h z z z z @ t z z z x 3 : x z z x p       ",
"      , , , < :   - < , , , o @ , , , , # . < , , , -   - , , , , . @ < , , < @ . , , , , ;   - , , , , . # , , , > @ o < , , , =   > , , , > . $ , , , , + o < , > , =   > , , , < , < :       ",
"    2 :.;.:.:.%.O #.;.:.:.:.r Z :.:.:.:.J 9 :.:.:.:.%.O &.:.:.:.:.5 J :.;.;.:.Z r :.:.:.:.@.o =.:.;.:.;.2 T :.:.:.:.x y :.:.:.:. .@ =.:.:.:.=.> W :.;.:.;.j d ;.;.:.:.' $ :.:.:.;.:.:.;.%.+     ",
"    2 =.*.+.*.@.@ +.=./ *.*.r C *..._ =.F 0 *.$.W *.+.O $.*.~ %.*.q J *.W +.*.C r =.+.W =. .O &.*.W @.*.3 I =./ ` =.z u =. ./ *.| @ =.=.T $.*., W *.*.*.*.h d *.*.*.*./ % =./ R { ' } +.$.+     ",
"    2 %.%.%.%.+.+ +.%.K $.%.r C %./ E %.F 0 %.#.A %.+.O #.%.A ..%.0 F %./ T %.C r %.) D %...o %.%.! %.%.2 I %.L U %.z u %.} Z %.' @ &.%.F  .%.> E &.o.+.%.h d %.W D %.^ $ =.J V J C H W +.+     ",
"    2 $.$.$.$.o.+ o.#.#.#.$.r C $.#.$.$.F 0 #.$.#.#...o +.#.$.$.$.q F $.$.$.$.V t #.$.$.#. .O $.$.$.#.#.2 I $.$.#.@.z u $.$.#.#.' @ $.$.#.#.#., T $.$.$.$.g d #.$.$.$./ % %.#.$.#.$.' $.o.+     ",
"    ; ' ' ' ' ^ o T ' ' ' ' 5 f ' ' ' ' l , ' ' ' } E o W ' } ' ' < k ' ' ' ' g 3 ' ' } ' T o W ' ' ' ' : x ' ' ' ' a 0 ' ' ' ' I O / ' ' ' ' = Z ' ' ' ' u r ' ' ' ' J @ / ' ' ' ' ' ' ~ o     ",
"                                                                                                                                                                                                ",
"    ; ..+.o.+...+.O.| @ T o.o.o...e a +.+.o.+.Z - ..+...o.' O W +.o.+...9 g o...+.o.x > ..o.+...( o / +.o.+.o.2 l ....+.+.j 3 +...o.+.! o ' o.o.o.+.> B +...+.o.f 9 o.o.+...W o { ..o.+. .-     ",
"    3 =.%.! %.+.=.=.%.% ' =.=.=.=.p z =.=.*.=.T < =.=.=.=.%.+ +.=.*.=.=.t C =.#.=.*.K 5 =.=.=.*.#.o $.=.*.=.=.w F =.%.*.=.Z e =.=.=.=.+.o %.=.*.=.*.5 I *.@.%.=.B u =.*.+.=. .+ =.=.@.=.*.<     ",
"    3 &.%.! I z I %.$.% ' %.T E %.i l %.G H %.U 1 &...z &.#.+ ..%.U $.%.t V &.R +.&.K 9 *.+.I %.+.o $.*./ / %.q D &./ &.&.Z e &.} K %.o.o %.&.D [ %.5 I %./ %.&.B y %.&./ %. .+ %.&.W &.%.<     ",
"    3 %.$. .' ! / $.@.% ' $.) W $.i l $.] | $.I < %.#./ #.+.@ ..$. .$.$.t V $. .o.$.J 9 $.+.E $.o.o +.$./  .#.q D $...$.$.Z e $.@./ $. .o #.$.J +.$.3 K $._ +.$.x u $.+./ $.} + %.$.} #.$.<     ",
"    <  . . . . . . .| $ W  . . . .t h  . . . .F > .. . . .} + /  . . . .w l  . . . .Z 3  . . . .' o }  . . . .9 V  . . . .B 0  . . . .) o |  . . . .2 S  . . . .j r  . . . ./ +  . . . . .>     ",
"    . 5 5 5 5 5 5 5 3   : 5 5 5 5 @ @ 5 5 5 5 - . 3 5 5 5 1   > 5 5 5 5 o $ 5 5 5 5 = . 5 5 5 5 <   < 9 5 5 5 . % 5 5 5 5 = . 5 5 5 5 <   < 5 5 5 5 X = 5 5 5 5 $ o 5 5 5 5 >   2 5 3 5 3 .     ",
"    @ x B B B B B B V B B j . j V x x x = w B B B B q = B B B B h . j V B B B @ r x B V B 9 - B V B B a . k B B B z @ y B B B B 2 > B B B V p X z B B B z O i B B B B < 1 B B B V B x V B :     ",
"    2 =.-.-.=.=.-.-.=.-.=.$.o %.=.=.:.=.0 J -.-.-.-.Z r -.-.&.-.@.o *.=.$.=.=.5 T =.-.-.-.B u -.&.-.-. .O -.-.-.=.=.> W -.&.-.-.j d ;.=.*.=.' $ -.-.-.-.*.- / -.-.-.=.f j -.=.-.=.-.=.=.-.y     ",
"    2 *.&.} / ~ U / Y &.&.+.+ $.=.W X.&.q F &.^  .&.Z r &...F &.o.O %.*.I *.&.3 I &.' ^ %.x u %.W W %. .O &.&.' &.%.< R &.T ..&.j d %.%./ &.) $ *.*.o.&.%.- / *. .*.%.d g %.z E R T I W &.y     ",
"    2 %.$...~ T C W I $.$.+.o +.%.J _ %.0 F %.( _ %.Z r $. .I $. .O $.%.' $.$.5 K %.Q I %.x y %.' ' %.' @ %.%.~ %.$.< R $.R  .%.j a %.%.' %./ $ *.%.| $.$.: / %.$.%.$.d h %.U / ( W K ' %.y     ",
"    2 @.o.+.+.o. .+.+.+.+. .O o.+.+.+.+.q D +.+.+.+.V r #.o.+.#.| O +.o.+.+.o.5 K +.}  .+.l u +.+.+.+.' O $.+. .o.+.< T +.+...+.g a +.+.o.o.^ $ $.+.o.+.o.- W +.+.+.+.d g +.+.+.+.+.+.+.o.y     ",
"    @ j z l l z l l l l l f . d l l l l $ 0 l l l l 0 % l l l l d . g l l l l @ e l l l l 5 = l l l l a . g k l l k O t l z l l 2 : l l z l i X j z l l j o y z l l l > , z l l l l l z l -     ",
"    . < 1 1 1 1 1 1 1 1 1 1 1 1 >   $ 2 < 2 2 @ o 1 < 2 2 -   , 1 1 1 , . = 1 1 2 < O o 2 < < 1 -   < 2 1 < <   - 2 2 < < + $ 2 1 1 1 # X 1 1 1 1 -   , 2 < 2 1 . $ 1 1 1 2 1 < 2 < 2 < 2 o     ",
"    2 :.;.:.;.:.;.:.;.:.;.:.;.;.*.@ T -.:.;.;.z u :.:.;.;. .@ ;.;.;.;.-.: ^ ;.;.:.:.j d :.:.:.:._ % :.-.:.:.=.= ' ;.:.:.:.a L ;.:.:.;.B t :.:.:.;.o.+ =.:.:.-.=.< E :.;.;.;.:.;.:.:.-.:.-.y     ",
"    2 &.*.*.*.' { I ' x $.*.*.*.$.@ T &. .+.*.z u *.#.+.*.} @ *.*.' *.&.: W *.+.@.&.j d *./ { =.^ = =.&./ %.%.- / %./ X.=.a L =.*.*.*.B y *.*.*.*. .+ *.*.} *.&.1 E *.*.*.T W ' F Q *.*.=.y     ",
"    2 &.%.%.%.' K I I S o.%.%.%.#.@ T %.R { %.z u %. .P %.' @ &.%.L %.$., W &.T _ %.g d %.R U %.^ = &.@.L +.$.- _  .J ! %.a K $...%.%.B y %.%.o.%. .+ %.&.W %.$.< T %.%.%.A R J R T %.%.%.y     ",
"    2 $.#.#.#.#.@.$.#.#.$.$.+.$.+.# I #.#.#.#.l i #.#.#.#.) @ %.#.#.#.#.> W #.#.#.#.g d #.#.#.#./ = &.#.#.#.#.- ^ #.#.#.#.a J #.+.#.#.B y #.#.#.#.} O $.#.o.#.#.< T #.#.#.@.#.#.#.#.#.#.#.y     ",
"    - ( ) ) ) ) ) ) ) ) ) ) ) ) W o z ) ) ) ) p 0 ' ) ( ) L o / ) ) ) / = V ) ) ) ) y e ) ) ) ) D @ / ) ) ) ^ # F ) ) ) ' e l ) ) ) ) a 5 ) ( ' ) U o ~ ) ) ) ( - B ) ) ' ) ) ) ) ) ) ) ) 9     ",
"                                                                                                                                                                                                ",
"    ; +.#.+.#.+.@.+.D - +.+.@.+.+.@.#.F % +.#.+.#.+.+.@.L $ +.#.#.@.#.+.@.#.+.#.#.+.#.+.+.@.#.#.+.@.#.+.+.#.@.+.+.@.#.+.@.#.+.@.+.@.2 l @.+.+.#.+.@.#.5 j @.@.+.+.@.#.@.9 h @.+.#.+.#.+.@.q     ",
"    2 =.=.' +.=.o.=.T < =.$.+.+.=.=.=.W : -.*.#. .X.=.=.Q ; *.=.*.*.*.=.*.=.=.*.=.*.*.=.*.*.=.*.-.*.*.*.=.*.*.=.=.*.*.*.=.*.*.=.*.=.w D *. .' $.' *.*.t S X.o.*.=.=.=.*.t Z =.%.} #.%.+.=.y     ",
"    2 %.%.W I I W &.T < *.o.k H J W &.E > *.&.T S Z %.%.W ; *.&.&.&.&.&.%.&.&.%.&.&.&.&.&.&.&.&.&.&.&.&.&.&.&.&.&.&.&.&.&.&.&.&.&.&.q F ' V V T W I &.w Z L V Z S T W ! t V &.^ @.I D ' &.y     ",
"    3 %.$./ '  . .$.U < %.$.| '  . .$.T > %.#. .} ( $.$.E - &.$.$.#.#.$.#.$.%.$.$.#.$.$.$.$.$.#.$.$.#.#.$.$.$.$.$.#.$.$.$.#.$.$.$.$.q D  ...' } /  .#.r Z ....' '  ./ ..t B $.#./ '  .+.$.y     ",
"    <  . . . . . . .F >  . . . .|  . .J -  . . . . . . .T =  . . . . . . . . . . . . . . . . . . . . . . . . . . . . . . . . . . . .9 B  . . . . . . .q z  . . . . . . .w l  . . .|  . . .r     ",
"    . 3 3 3 3 3 3 3 - . 2 5 3 3 5 3 3 - . 2 3 3 3 3 3 5 - . 2 3 2 2 5 2 3 5 3 3 2 2 3 3 5 3 3 5 2 3 5 2 3 5 3 3 3 5 3 3 2 3 5 2 3 3 o $ 5 3 3 3 3 3 5 o $ 3 3 3 3 3 5 3 o # 3 3 3 5 3 3 5 o     ",
"                                                                                                                                                                                                ",
"                                                                                                                                                                                                "
};
